# xmcd CD database file
#
# Track frame offsets:
#	150
#	20110
#	49800
#	88877
#	106190
#	123310
#	140210
#	164680
#	179082
#	197125
#	214070
#	238847
#	271187
#	286602
#	306557
#
# Disc length: 4359 seconds
#
# Revision: 2
# Processed by: cddbd v1.5.2PL0 Copyright (c) Steve Scherf et al.
# Submitted via: CDex 1.70beta2
#
DISCID=ed11050f
DTITLE=Freddie King - Stayin' Home With The Blues
DYEAR=1997
DGENRE=Blues
TTITLE0=Sweet Home Chicago
TTITLE1=Farther Up The Road
TTITLE2=Gambling Woman Blues
TTITLE3=Sugar Sweet
TTITLE4=She's A Burglar
TTITLE5=Texas Flyer
TTITLE6=Have You Ever Loved A Woman
TTITLE7=Pulp Wood
TTITLE8=TV Mama
TTITLE9=Woman Across The River
TTITLE10=T'aint Nobody's Biz'ness If I Do
TTITLE11=Things I Used To Do
TTITLE12=You Can Run But You Can't Hide
TTITLE13=Woke Up This Morning
TTITLE14=Meet Me In The Morning
EXTD=YEAR: 1997
EXTT0=
EXTT1=
EXTT2=
EXTT3=
EXTT4=
EXTT5=
EXTT6=
EXTT7=
EXTT8=
EXTT9=
EXTT10=
EXTT11=
EXTT12=
EXTT13=
EXTT14=
PLAYORDER=
